<?xml version="1.0" encoding="iso-8859-1"?>
<!-- Generator: Adobe Illustrator 19.1.0, SVG Export Plug-In . SVG Version: 6.00 Build 0)  -->
<svg version="1.1" id="Capa_1" xmlns="http://www.w3.org/2000/svg" xmlns:xlink="http://www.w3.org/1999/xlink" x="0px" y="0px"
	 viewBox="0 0 482.338 482.338" style="enable-background:new 0 0 482.338 482.338;" xml:space="preserve">
<g>
	<g>
		<path d="M152.8,398.019c-3.2,0-6.3,1.3-8.5,3.5s-3.5,5.3-3.5,8.5c0,3.1,1.3,6.3,3.5,8.5s5.3,3.5,8.5,3.5s6.3-1.3,8.5-3.5
			s3.5-5.3,3.5-8.5s-1.3-6.3-3.5-8.5C159.1,399.219,156,398.019,152.8,398.019z"/>
		<path d="M77.2,359.419c-5.7,3.3-7.7,10.7-4.4,16.4c2.2,3.9,6.3,6,10.4,6c2,0,4.1-0.5,6-1.6c5.7-3.3,7.7-10.7,4.4-16.4
			C90.3,358.019,82.9,356.119,77.2,359.419z"/>
		<path d="M118.6,388.819c-5.7-3.3-13.1-1.4-16.4,4.4c-3.3,5.7-1.4,13.1,4.4,16.4l0,0c1.9,1.1,4,1.6,6,1.6c4.2,0,8.2-2.1,10.4-6
			C126.3,399.519,124.4,392.119,118.6,388.819z"/>
		<path d="M72.5,341.619c3.2,0,6.3-1.3,8.5-3.5s3.5-5.3,3.5-8.5s-1.3-6.3-3.5-8.5s-5.3-3.5-8.5-3.5s-6.3,1.3-8.5,3.5
			c-2.2,2.2-3.5,5.3-3.5,8.5s1.3,6.2,3.5,8.5C66.2,340.319,69.3,341.619,72.5,341.619z"/>
		<path d="M20.5,340.019c2.2-2.2,3.5-5.3,3.5-8.5s-1.3-6.3-3.5-8.5s-5.3-3.5-8.5-3.5c-3.1,0-6.3,1.3-8.5,3.5s-3.5,5.3-3.5,8.5
			s1.3,6.3,3.5,8.5s5.3,3.5,8.5,3.5S18.3,342.319,20.5,340.019z"/>
		<path d="M76.3,434.119c-5.4-3.9-12.9-2.7-16.8,2.6c-3.9,5.4-2.7,12.9,2.6,16.8c2.1,1.6,4.6,2.3,7.1,2.3c3.7,0,7.4-1.7,9.7-4.9
			C82.8,445.519,81.7,438.019,76.3,434.119z"/>
		<path d="M30.2,370.719c-2.1-6.3-8.8-9.8-15.1-7.7c-6.3,2-9.8,8.8-7.7,15.1c1.6,5.1,6.4,8.3,11.4,8.3c1.2,0,2.5-0.2,3.7-0.6
			C28.8,383.819,32.3,377.019,30.2,370.719z"/>
		<path d="M111.6,452.219c-6.3-2.1-13.1,1.4-15.1,7.7c-2,6.3,1.4,13.1,7.7,15.1c1.2,0.4,2.5,0.6,3.7,0.6c5.1,0,9.8-3.2,11.4-8.3
			C121.4,461.019,117.9,454.219,111.6,452.219z"/>
		<path d="M31.5,403.419c-5.4,3.9-6.5,11.4-2.6,16.8c2.4,3.2,6,4.9,9.7,4.9c2.5,0,4.9-0.7,7.1-2.3c5.4-3.9,6.5-11.4,2.6-16.8
			C44.3,400.719,36.8,399.519,31.5,403.419z"/>
		<path d="M150.8,458.319c-3.2,0-6.3,1.3-8.5,3.5s-3.5,5.3-3.5,8.5s1.3,6.3,3.5,8.5s5.3,3.5,8.5,3.5s6.3-1.3,8.5-3.5
			s3.5-5.3,3.5-8.5c0-3.1-1.3-6.3-3.5-8.5C157.1,459.619,154,458.319,150.8,458.319z"/>
		<path d="M478.8,350.719l-97.6-97.6c-2.3-2.3-5.3-3.5-8.5-3.5s-6.2,1.3-8.5,3.5l-24,24l-15.6-15.6l45.8-45.8
			c10.6-10.7,10.7-28,0-38.7l-23.7-23.7l42.7-42.7c4.7-4.7,4.7-12.3,0-17s-12.3-4.7-17,0l-42.7,42.7l-24.4-24.4
			c-5.2-5.2-12-8-19.3-8s-14.2,2.8-19.3,8l-45.8,45.8l-15.6-15.5l24.1-24.1c4.7-4.7,4.7-12.3,0-17l-97.6-97.6
			c-2.3-2.3-5.3-3.5-8.5-3.5l0,0c-3.2,0-6.2,1.3-8.5,3.5l-65.2,65.1c-2.3,2.3-3.5,5.3-3.5,8.5s1.3,6.2,3.5,8.5l97.6,97.6
			c2.3,2.3,5.4,3.5,8.5,3.5s6.1-1.2,8.5-3.5l24.1-24.1l15.6,15.6l-34.9,34.9c-5.2,5.2-8,12-8,19.3c0,0.9,0,1.9,0.1,2.8
			c-9.3-2.2-19-3.4-28.9-3.4c-22.3,0-44.4,6-63.8,17.3c-3.2,1.9-5.4,5.1-5.9,8.8c-0.5,3.7,0.8,7.4,3.4,10l151.9,151.9
			c2.3,2.3,5.3,3.5,8.5,3.5c0.5,0,1,0,1.5-0.1c3.7-0.5,7-2.6,8.8-5.9c16.8-28.9,21.2-62.2,13.8-92.7c1,0.1,1.9,0.2,2.9,0.2
			c7.3,0,14.2-2.8,19.3-8l34.9-34.9l15.6,15.6l-23.9,24.2c-4.7,4.7-4.7,12.3,0,17l97.6,97.6c2.3,2.3,5.3,3.5,8.5,3.5
			s6.2-1.3,8.5-3.5l65.1-65.1C483.5,363.019,483.5,355.419,478.8,350.719z M155.8,157.819l-80.7-80.7l48.1-48.1l80.7,80.7
			L155.8,157.819z M222.9,387.619l-128-128c11.9-4.7,24.6-7.1,37.4-7.1c26.3,0,50.8,10.1,69.1,28.3l0.2,0.2
			C229.4,308.919,237.3,350.819,222.9,387.619z M299.2,253.019L299.2,253.019c-0.1,0.1-0.1,0.1-0.1,0.1l-43.3,43.3
			c-0.8,0.8-1.7,1-2.4,1c-0.6,0-1.6-0.2-2.4-1l-32.5-32.5l-0.1-0.1l-0.1-0.1l-32.4-32.4c-0.8-0.8-1-1.7-1-2.4s0.2-1.6,1-2.4
			l97.6-97.6c0.8-0.8,1.7-1,2.4-1c0.6,0,1.6,0.2,2.4,1l32.9,32.9l0,0l0,0l32.1,32.1c1.3,1.3,1.3,3.4,0,4.7L299.2,253.019z
			 M405.3,407.319l-80.7-80.7l24.1-24.1l0,0l0,0l24.1-24.1l80.7,80.7L405.3,407.319z"/>
	</g>
</g>
<g>
</g>
<g>
</g>
<g>
</g>
<g>
</g>
<g>
</g>
<g>
</g>
<g>
</g>
<g>
</g>
<g>
</g>
<g>
</g>
<g>
</g>
<g>
</g>
<g>
</g>
<g>
</g>
<g>
</g>
</svg>
